<svg width="24" height="24" viewBox="0 0 24 24" fill="none" xmlns="http://www.w3.org/2000/svg">
<path d="M12.4352 12L20.696 3.72957C20.7533 3.67161 20.7855 3.59334 20.7855 3.51177C20.7855 3.43021 20.7533 3.35194 20.696 3.29397C20.6372 3.2379 20.559 3.20668 20.4777 3.20679C20.3965 3.2069 20.3184 3.23834 20.2598 3.29457L12.0002 11.5644L3.73937 3.29397C3.68053 3.23827 3.60259 3.20723 3.52157 3.20723C3.44054 3.20723 3.3626 3.23827 3.30377 3.29397C3.24642 3.35184 3.21425 3.43001 3.21425 3.51147C3.21425 3.59294 3.24642 3.67111 3.30377 3.72897L11.5652 12L3.30437 20.2704C3.27405 20.2985 3.24973 20.3325 3.23284 20.3703C3.21596 20.4081 3.20687 20.4489 3.20611 20.4902C3.20535 20.5316 3.21293 20.5727 3.22841 20.6111C3.24389 20.6494 3.26695 20.6843 3.29621 20.7135C3.32546 20.7428 3.36032 20.7658 3.39869 20.7813C3.43706 20.7968 3.47815 20.8044 3.51952 20.8036C3.56089 20.8029 3.60168 20.7938 3.63945 20.7769C3.67722 20.76 3.71121 20.7357 3.73937 20.7054L12.0002 12.4356L20.2604 20.706C20.2889 20.7346 20.3228 20.7573 20.3602 20.7728C20.3975 20.7883 20.4375 20.7963 20.478 20.7963C20.5184 20.7963 20.5584 20.7884 20.5958 20.7729C20.6331 20.7575 20.6671 20.7348 20.6957 20.7063C20.7243 20.6777 20.747 20.6438 20.7625 20.6065C20.778 20.5691 20.7859 20.5291 20.786 20.4887C20.786 20.4483 20.7781 20.4082 20.7626 20.3709C20.7472 20.3335 20.7245 20.2996 20.696 20.271L12.4352 12Z" fill="#1E1E1E"/>
</svg>
