<svg width="21" height="20" viewBox="0 0 21 20" fill="none" xmlns="http://www.w3.org/2000/svg">
<path d="M19.8294 0H2.02944C1.73771 0 1.45792 0.115893 1.25163 0.322183C1.04534 0.528473 0.929443 0.808262 0.929443 1.1V18.9C0.929443 19.1917 1.04534 19.4715 1.25163 19.6778C1.45792 19.8841 1.73771 20 2.02944 20H11.6094V12.25H9.00944V9.25H11.6094V7C11.5556 6.47176 11.6179 5.93813 11.7922 5.43654C11.9664 4.93495 12.2482 4.47755 12.6179 4.09641C12.9876 3.71528 13.4362 3.41964 13.9323 3.23024C14.4283 3.04083 14.9598 2.96225 15.4894 3C16.2678 2.99521 17.0457 3.03528 17.8194 3.12V5.82H16.2294C14.9694 5.82 14.7294 6.42 14.7294 7.29V9.22H17.7294L17.3394 12.22H14.7294V20H19.8294C19.9739 20 20.1169 19.9715 20.2504 19.9163C20.3839 19.861 20.5051 19.78 20.6073 19.6778C20.7094 19.5757 20.7904 19.4544 20.8457 19.321C20.901 19.1875 20.9294 19.0445 20.9294 18.9V1.1C20.9294 0.955546 20.901 0.812506 20.8457 0.679048C20.7904 0.54559 20.7094 0.424327 20.6073 0.322183C20.5051 0.220038 20.3839 0.139013 20.2504 0.0837326C20.1169 0.0284524 19.9739 0 19.8294 0Z" fill="#1E1E1E"/>
</svg>
