<svg width="170" height="64" viewBox="0 0 170 64" fill="none" xmlns="http://www.w3.org/2000/svg">
<g id="FooterNanoLogo">
<path d="M37.8287 37.7556H26.6118L12.013 12.3055V37.7556H3.0508V0.615276H14.2676L28.8665 26.0654V0.615276H37.8287V37.7556Z" fill="#141414"/>
<path d="M43.2675 37.7556L57.5845 0.615276H67.3922L81.7655 37.7556H72.0142L69.6468 31.0435H55.1608L52.7934 37.7556H43.2675ZM62.432 10.5716L57.9227 23.2687H66.8849L62.432 10.5716Z" fill="#141414"/>
<path d="M122.51 37.7556H111.293L96.6942 12.3055V37.7556H87.732V0.615276H98.9488L113.548 26.0654V0.615276H122.51V37.7556Z" fill="#141414"/>
<path d="M159.839 19.0736C159.839 11.1309 155.16 7.49519 149.58 7.49519C144.056 7.49519 139.378 11.1309 139.378 19.0736C139.378 27.0163 144.056 30.9317 149.58 30.9317C155.16 30.9317 159.839 27.0163 159.839 19.0736ZM169.308 19.0736C169.308 30.9876 161.248 38.4269 149.58 38.4269C137.912 38.4269 129.908 30.9876 129.908 19.0736C129.908 7.10365 137.912 0 149.58 0C161.248 0 169.308 7.10365 169.308 19.0736Z" fill="#141414"/>
<path d="M10.2813 52.7013C10.2813 48.1818 7.30521 47.6896 4.532 47.6896H3.85561V57.713H4.532C7.30521 57.713 10.2813 57.2208 10.2813 52.7013ZM0.856934 45.2732H4.68982C9.51476 45.2732 13.3927 46.7275 13.3927 52.7013C13.3927 58.6751 9.51476 60.1294 4.68982 60.1294H0.856934V45.2732Z" fill="#141414"/>
<path d="M15.9488 49.1662H18.8347V60.1294H15.9488V49.1662ZM15.9488 45.2732H18.8347V47.9357H15.9488V45.2732Z" fill="#141414"/>
<path d="M24.2941 52.5894L21.6336 52.4999C21.814 50.4192 23.4373 48.853 26.6164 48.853C29.8856 48.853 31.3962 50.1507 31.3511 53.0816C31.3286 54.2898 31.2835 55.4756 31.2835 56.5048C31.2835 57.6906 31.3511 58.8988 31.509 60.1294H28.8485L28.7808 58.9435C28.0594 59.9504 26.9997 60.3978 25.2861 60.3978C22.7384 60.3978 21.2503 58.6751 21.2503 56.818C21.2503 55.8112 21.6562 55.0058 22.2875 54.5136C23.2344 53.7752 24.6098 53.462 26.4586 53.2606L28.4877 53.0369V52.6565C28.4877 51.3589 27.7212 50.9338 26.4811 50.9338C25.2411 50.9338 24.3843 51.4484 24.2941 52.5894ZM28.5554 55.677V55.0058L26.5938 55.2295C24.8578 55.4309 24.1814 55.9455 24.1814 56.7957C24.1814 57.6011 24.8127 58.2723 25.94 58.2723C27.3379 58.2723 28.5554 57.4445 28.5554 55.677Z" fill="#141414"/>
<path d="M34.1788 60.1294V49.1662H37.0647V50.4192C37.7186 49.4123 38.8459 48.9201 40.2212 48.9201C42.1377 48.9201 42.9719 49.7927 43.4228 50.6205C44.3021 49.4795 45.4294 48.9201 47.1204 48.9201C48.4507 48.9201 49.4652 49.3229 50.0965 50.1059C50.6377 50.7995 50.9082 51.784 50.9082 53.3054V60.1294H48.0223V53.8423C48.0223 52.9921 47.9772 52.3433 47.6841 51.8958C47.4135 51.4707 46.9626 51.2246 46.1735 51.2246C44.2345 51.2246 44.009 52.8355 44.009 54.5359V60.1294H41.1231V53.8423C41.1231 52.9698 41.0554 52.2986 40.7398 51.8511C40.4692 51.4707 40.0183 51.2246 39.2743 51.2246C37.3353 51.2246 37.0647 52.8355 37.0647 54.5359V60.1294H34.1788Z" fill="#141414"/>
<path d="M55.9723 54.6702C55.9723 56.9075 56.9869 58.2052 58.5877 58.2052C60.1885 58.2052 61.2031 56.9075 61.2031 54.6702C61.2031 52.4104 60.1885 51.1127 58.5877 51.1127C56.9869 51.1127 55.9723 52.4104 55.9723 54.6702ZM53.0413 54.6702C53.0413 50.7324 55.6567 48.9201 58.5877 48.9201C61.5188 48.9201 64.1341 50.7324 64.1341 54.6702C64.1341 58.6079 61.5188 60.3978 58.5877 60.3978C55.6567 60.3978 53.0413 58.6079 53.0413 54.6702Z" fill="#141414"/>
<path d="M69.3422 49.1662V50.4192C69.996 49.4123 71.2361 48.9201 72.6114 48.9201C74.0093 48.9201 75.0464 49.3229 75.7228 50.1954C76.2414 50.8666 76.512 51.8287 76.512 53.3054V60.1294H73.626V53.9318C73.626 52.9921 73.5358 52.3433 73.2202 51.8958C72.9271 51.4931 72.4311 51.2246 71.6645 51.2246C69.7706 51.2246 69.3422 52.7684 69.3422 54.5359V60.1294H66.4563V49.1662H69.3422Z" fill="#141414"/>
<path d="M89.3794 45.2732V60.1294H86.6062L86.5837 58.9659C85.8622 59.9727 84.7349 60.3978 83.4723 60.3978C80.6765 60.3978 78.6473 58.25 78.6473 54.6478C78.6473 51.1351 80.8118 48.9201 83.6527 48.9201C84.9829 48.9201 85.8847 49.4795 86.4935 50.1731V45.2732H89.3794ZM84.0359 58.2052C85.6367 58.2052 86.6062 56.8404 86.6062 54.6478C86.6062 52.4999 85.6367 51.1127 84.0359 51.1127C82.4577 51.1127 81.5784 52.5894 81.5784 54.6702C81.5784 56.7509 82.4577 58.2052 84.0359 58.2052Z" fill="#141414"/>
<path d="M97.6665 60.1294V45.2732H103.574C106.257 45.2732 109.098 46.0115 109.098 49.1439C109.098 50.5534 108.196 51.7616 107.384 52.2762C108.534 52.8131 109.661 53.641 109.661 55.6994C109.661 58.9659 106.956 60.1294 103.822 60.1294H97.6665ZM100.665 53.7081V57.713H103.979C105.716 57.713 106.595 57.0642 106.595 55.6994C106.595 54.3122 105.716 53.7081 103.844 53.7081H100.665ZM100.665 47.6896V51.2917H103.754C105.174 51.2917 106.031 50.7324 106.031 49.4347C106.031 48.2489 105.152 47.6896 103.754 47.6896H100.665Z" fill="#141414"/>
<path d="M114.378 52.5894L111.717 52.4999C111.897 50.4192 113.521 48.853 116.7 48.853C119.969 48.853 121.48 50.1507 121.435 53.0816C121.412 54.2898 121.367 55.4756 121.367 56.5048C121.367 57.6906 121.435 58.8988 121.592 60.1294H118.932L118.864 58.9435C118.143 59.9504 117.083 60.3978 115.37 60.3978C112.822 60.3978 111.334 58.6751 111.334 56.818C111.334 55.8112 111.74 55.0058 112.371 54.5136C113.318 53.7752 114.693 53.462 116.542 53.2606L118.571 53.0369V52.6565C118.571 51.3589 117.805 50.9338 116.565 50.9338C115.325 50.9338 114.468 51.4484 114.378 52.5894ZM118.639 55.677V55.0058L116.677 55.2295C114.941 55.4309 114.265 55.9455 114.265 56.7957C114.265 57.6011 114.896 58.2723 116.023 58.2723C117.421 58.2723 118.639 57.4445 118.639 55.677Z" fill="#141414"/>
<path d="M124.668 49.1662V45.8997H127.554V49.1662H129.899V51.2917H127.554V56.5496C127.554 57.6906 127.96 57.9144 128.974 57.9144H129.854V60.1294H127.734C125.164 60.1294 124.668 59.3463 124.668 57.1089V51.2917H123.067V49.1662H124.668ZM132.154 49.1662V45.8997H135.039V49.1662H137.384V51.2917H135.039V56.5496C135.039 57.6906 135.445 57.9144 136.46 57.9144H137.339V60.1294H135.22C132.65 60.1294 132.154 59.3463 132.154 57.1089V51.2917H130.553V49.1662H132.154Z" fill="#141414"/>
<path d="M144.601 60.3978C140.858 60.3978 138.941 57.8472 138.941 54.6478C138.941 51.2917 141.128 48.9201 144.533 48.9201C148.14 48.9201 150.215 51.5155 150.034 55.5204H141.805C141.872 57.1313 142.977 58.2052 144.555 58.2052C145.998 58.2052 146.833 57.4893 147.148 56.5943L149.854 56.9523C149.335 58.4737 147.734 60.3978 144.601 60.3978ZM144.465 51.0009C143.248 51.0009 141.895 51.6721 141.805 53.5291H147.148C147.081 51.7168 145.728 51.0009 144.465 51.0009Z" fill="#141414"/>
<path d="M158.827 49.2334V51.9406C158.421 51.8958 158.06 51.8735 157.632 51.8735C156.211 51.8735 155.264 52.388 155.264 54.4912V60.1294H152.378V49.1662H155.219V50.889C155.873 49.748 156.91 49.1886 158.195 49.1886C158.398 49.1886 158.646 49.211 158.827 49.2334Z" fill="#141414"/>
<path d="M161.387 64H160.17V61.6284H161.252C162.221 61.6284 162.627 61.4718 163.146 60.3307L163.258 60.0846L159.178 49.1662H162.334L164.679 56.5719L167.069 49.1662H170L166.099 59.7938C164.814 63.284 164.183 64 161.387 64Z" fill="#141414"/>
</g>
</svg>
