<svg width="21" height="20" viewBox="0 0 21 20" fill="none" xmlns="http://www.w3.org/2000/svg">
<path id="Vector" d="M11.9583 0.0012304C12.688 -0.00156983 13.4177 0.00576429 14.1473 0.0232305L14.3413 0.0302304C14.5653 0.0382304 14.7863 0.0482304 15.0533 0.0602304C16.1173 0.11023 16.8433 0.278231 17.4803 0.525231C18.1403 0.779231 18.6963 1.12323 19.2523 1.67923C19.7606 2.17884 20.1541 2.78318 20.4053 3.45023C20.6523 4.08723 20.8203 4.81423 20.8703 5.87823C20.8823 6.14423 20.8923 6.36623 20.9003 6.59023L20.9063 6.78423C20.924 7.51342 20.9317 8.24283 20.9293 8.97223L20.9303 9.71823V11.0282C20.9327 11.758 20.9251 12.4877 20.9073 13.2172L20.9013 13.4112C20.8933 13.6352 20.8833 13.8562 20.8713 14.1232C20.8213 15.1872 20.6513 15.9132 20.4053 16.5502C20.1549 17.218 19.7614 17.8228 19.2523 18.3222C18.7522 18.8306 18.1476 19.224 17.4803 19.4752C16.8433 19.7222 16.1173 19.8902 15.0533 19.9402C14.7863 19.9522 14.5653 19.9622 14.3413 19.9702L14.1473 19.9762C13.4177 19.994 12.688 20.0017 11.9583 19.9992L11.2123 20.0002H9.90326C9.17353 20.0027 8.44379 19.995 7.71426 19.9772L7.52026 19.9712C7.28287 19.9626 7.04554 19.9526 6.80826 19.9412C5.74426 19.8912 5.01826 19.7212 4.38026 19.4752C3.71295 19.2246 3.1085 18.8311 2.60926 18.3222C2.10031 17.8225 1.70649 17.2178 1.45526 16.5502C1.20826 15.9132 1.04026 15.1872 0.990264 14.1232C0.979127 13.8859 0.969127 13.6486 0.960264 13.4112L0.955265 13.2172C0.936828 12.4877 0.928494 11.758 0.930265 11.0282V8.97223C0.927474 8.24283 0.934808 7.51343 0.952265 6.78423L0.959265 6.59023C0.967265 6.36623 0.977265 6.14423 0.989265 5.87823C1.03926 4.81323 1.20726 4.08823 1.45426 3.45023C1.70564 2.78285 2.10023 2.17868 2.61026 1.68023C3.10916 1.17098 3.71323 0.776803 4.38026 0.525231C5.01826 0.278231 5.74326 0.11023 6.80826 0.0602304L7.52026 0.0302304L7.71426 0.0252306C8.44345 0.00680338 9.17285 -0.00153085 9.90226 0.000230468L11.9583 0.0012304ZM10.9303 5.00123C10.2678 4.99186 9.61002 5.11425 8.99524 5.3613C8.38046 5.60834 7.82091 5.97511 7.34911 6.44029C6.87731 6.90546 6.50266 7.45977 6.24695 8.07099C5.99124 8.68222 5.85956 9.33817 5.85956 10.0007C5.85956 10.6633 5.99124 11.3192 6.24695 11.9305C6.50266 12.5417 6.87731 13.096 7.34911 13.5612C7.82091 14.0264 8.38046 14.3931 8.99524 14.6402C9.61002 14.8872 10.2678 15.0096 10.9303 15.0002C12.2563 15.0002 13.5281 14.4734 14.4658 13.5358C15.4035 12.5981 15.9303 11.3263 15.9303 10.0002C15.9303 8.67415 15.4035 7.40238 14.4658 6.4647C13.5281 5.52701 12.2563 5.00123 10.9303 5.00123ZM10.9303 7.00123C11.3288 6.99389 11.7247 7.06603 12.0951 7.21344C12.4654 7.36085 12.8026 7.58057 13.087 7.85978C13.3715 8.13898 13.5974 8.47206 13.7517 8.83957C13.906 9.20708 13.9855 9.60165 13.9855 10.0002C13.9856 10.3988 13.9062 10.7934 13.7521 11.1609C13.5979 11.5285 13.3721 11.8617 13.0878 12.141C12.8034 12.4203 12.4663 12.6401 12.096 12.7876C11.7257 12.9352 11.3298 13.0074 10.9313 13.0002C10.1356 13.0002 9.37255 12.6842 8.80994 12.1216C8.24733 11.5589 7.93126 10.7959 7.93126 10.0002C7.93126 9.20458 8.24733 8.44152 8.80994 7.87891C9.37255 7.3163 10.1356 7.00023 10.9313 7.00023L10.9303 7.00123ZM16.1803 3.50123C15.8577 3.51414 15.5526 3.65138 15.3289 3.8842C15.1052 4.11702 14.9803 4.42736 14.9803 4.75023C14.9803 5.0731 15.1052 5.38344 15.3289 5.61626C15.5526 5.84908 15.8577 5.98632 16.1803 5.99923C16.5118 5.99923 16.8297 5.86753 17.0641 5.63311C17.2986 5.39869 17.4303 5.08075 17.4303 4.74923C17.4303 4.41771 17.2986 4.09977 17.0641 3.86535C16.8297 3.63093 16.5118 3.49923 16.1803 3.49923V3.50123Z" fill="#1E1E1E"/>
</svg>
