<svg width="20" height="18" viewBox="0 0 20 18" fill="none" xmlns="http://www.w3.org/2000/svg">
<path id="Vector" d="M4.93066 2.001C4.9304 2.53143 4.71943 3.04004 4.34417 3.41492C3.96891 3.78981 3.4601 4.00027 2.92966 4C2.39923 3.99974 1.89063 3.78877 1.51574 3.41351C1.14086 3.03825 0.930399 2.52943 0.930664 1.999C0.93093 1.46857 1.1419 0.959965 1.51716 0.585079C1.89242 0.210194 2.40123 -0.000264966 2.93166 2.50361e-07C3.4621 0.000265467 3.9707 0.211233 4.34559 0.586494C4.72047 0.961754 4.93093 1.47057 4.93066 2.001ZM4.99066 5.481H0.990664V18.001H4.99066V5.481ZM11.3107 5.481H7.33066V18.001H11.2707V11.431C11.2707 7.771 16.0407 7.431 16.0407 11.431V18.001H19.9907V10.071C19.9907 3.901 12.9307 4.131 11.2707 7.161L11.3107 5.481Z" fill="#1E1E1E"/>
</svg>
