<svg width="166" height="64" viewBox="0 0 166 64" fill="none" xmlns="http://www.w3.org/2000/svg">
<path d="M34.5637 37.8128H23.4159L8.90702 12.3242V37.8128H0V0.616207H11.1478L25.6567 26.1048V0.616207H34.5637V37.8128Z" fill="white"/>
<path d="M39.9691 37.8128L54.1979 0.616207H63.9452L78.2301 37.8128H68.5388L66.186 31.0905H51.7891L49.4363 37.8128H39.9691ZM59.0156 10.5876L54.534 23.3039H63.4411L59.0156 10.5876Z" fill="white"/>
<path d="M118.723 37.8128H107.576L93.0668 12.3242V37.8128H84.1598V0.616207H95.3075L109.816 26.1048V0.616207H118.723V37.8128Z" fill="white"/>
<path d="M155.822 19.1025C155.822 11.1478 151.173 7.50654 145.627 7.50654C140.137 7.50654 135.488 11.1478 135.488 19.1025C135.488 27.0572 140.137 30.9785 145.627 30.9785C151.173 30.9785 155.822 27.0572 155.822 19.1025ZM165.234 19.1025C165.234 31.0345 157.223 38.485 145.627 38.485C134.031 38.485 126.076 31.0345 126.076 19.1025C126.076 7.11441 134.031 0 145.627 0C157.223 0 165.234 7.11441 165.234 19.1025Z" fill="white"/>
<path d="M9.31634 52.9671C9.31634 48.5539 6.43248 48.0732 3.74525 48.0732H3.08983V57.8609H3.74525C6.43248 57.8609 9.31634 57.3802 9.31634 52.9671ZM0.184125 45.7137H3.89818C8.57353 45.7137 12.3313 47.1338 12.3313 52.9671C12.3313 58.8003 8.57353 60.2204 3.89818 60.2204H0.184125V45.7137Z" fill="white"/>
<path d="M14.8081 49.5152H17.6045V60.2204H14.8081V49.5152ZM14.8081 45.7137H17.6045V48.3136H14.8081V45.7137Z" fill="white"/>
<path d="M22.8947 52.8578L20.3167 52.7704C20.4915 50.7386 22.0645 49.2093 25.145 49.2093C28.3128 49.2093 29.7766 50.4765 29.7329 53.3385C29.7111 54.5182 29.6674 55.6761 29.6674 56.6811C29.6674 57.839 29.7329 59.0188 29.8858 60.2204H27.3078L27.2423 59.0625C26.5432 60.0456 25.5164 60.4826 23.856 60.4826C21.3872 60.4826 19.9453 58.8003 19.9453 56.987C19.9453 56.0039 20.3385 55.2173 20.9503 54.7367C21.8678 54.0157 23.2005 53.7099 24.992 53.5132L26.9583 53.2948V52.9234C26.9583 51.6562 26.2155 51.2411 25.0139 51.2411C23.8123 51.2411 22.9821 51.7436 22.8947 52.8578ZM27.0238 55.8728V55.2173L25.1231 55.4358C23.4409 55.6324 22.7854 56.1349 22.7854 56.9651C22.7854 57.7516 23.3972 58.4071 24.4895 58.4071C25.8441 58.4071 27.0238 57.5987 27.0238 55.8728Z" fill="white"/>
<path d="M32.4729 60.2204V49.5152H35.2693V50.7386C35.9029 49.7555 36.9953 49.2749 38.328 49.2749C40.185 49.2749 40.9934 50.1269 41.4303 50.9353C42.2824 49.821 43.3747 49.2749 45.0133 49.2749C46.3023 49.2749 47.2854 49.6681 47.8971 50.4328C48.4215 51.11 48.6836 52.0713 48.6836 53.5569V60.2204H45.8872V54.0813C45.8872 53.2511 45.8435 52.6175 45.5595 52.1806C45.2973 51.7655 44.8604 51.5251 44.0957 51.5251C42.2168 51.5251 41.9983 53.0981 41.9983 54.7586V60.2204H39.2019V54.0813C39.2019 53.2292 39.1363 52.5738 38.8305 52.1369C38.5683 51.7655 38.1314 51.5251 37.4104 51.5251C35.5315 51.5251 35.2693 53.0981 35.2693 54.7586V60.2204H32.4729Z" fill="white"/>
<path d="M53.5908 54.8896C53.5908 57.0744 54.5739 58.3415 56.1251 58.3415C57.6762 58.3415 58.6594 57.0744 58.6594 54.8896C58.6594 52.683 57.6762 51.4159 56.1251 51.4159C54.5739 51.4159 53.5908 52.683 53.5908 54.8896ZM50.7506 54.8896C50.7506 51.0445 53.2849 49.2749 56.1251 49.2749C58.9652 49.2749 61.4995 51.0445 61.4995 54.8896C61.4995 58.7348 58.9652 60.4826 56.1251 60.4826C53.2849 60.4826 50.7506 58.7348 50.7506 54.8896Z" fill="white"/>
<path d="M66.5461 49.5152V50.7386C67.1797 49.7555 68.3813 49.2749 69.714 49.2749C71.0685 49.2749 72.0735 49.6681 72.7289 50.5202C73.2314 51.1756 73.4936 52.115 73.4936 53.5569V60.2204H70.6971V54.1687C70.6971 53.2511 70.6097 52.6175 70.3039 52.1806C70.0199 51.7873 69.5392 51.5251 68.7964 51.5251C66.9612 51.5251 66.5461 53.0326 66.5461 54.7586V60.2204H63.7497V49.5152H66.5461Z" fill="white"/>
<path d="M85.9621 45.7137V60.2204H83.2749L83.2531 59.0843C82.5539 60.0675 81.4616 60.4826 80.2381 60.4826C77.529 60.4826 75.5628 58.3852 75.5628 54.8678C75.5628 51.4377 77.6601 49.2749 80.4129 49.2749C81.7019 49.2749 82.5758 49.821 83.1657 50.4983V45.7137H85.9621ZM80.7843 58.3415C82.3355 58.3415 83.2749 57.0088 83.2749 54.8678C83.2749 52.7704 82.3355 51.4159 80.7843 51.4159C79.255 51.4159 78.4029 52.8578 78.4029 54.8896C78.4029 56.9214 79.255 58.3415 80.7843 58.3415Z" fill="white"/>
<path d="M93.9923 60.2204V45.7137H99.7163C102.316 45.7137 105.069 46.4347 105.069 49.4933C105.069 50.8697 104.195 52.0495 103.408 52.552C104.523 53.0763 105.615 53.8847 105.615 55.8946C105.615 59.0843 102.993 60.2204 99.9566 60.2204H93.9923ZM96.898 53.9502V57.8609H100.11C101.792 57.8609 102.644 57.2273 102.644 55.8946C102.644 54.5401 101.792 53.9502 99.9784 53.9502H96.898ZM96.898 48.0732V51.5907H99.8911C101.267 51.5907 102.098 51.0445 102.098 49.7773C102.098 48.6194 101.246 48.0732 99.8911 48.0732H96.898Z" fill="white"/>
<path d="M110.185 52.8578L107.607 52.7704C107.782 50.7386 109.355 49.2093 112.436 49.2093C115.603 49.2093 117.067 50.4765 117.024 53.3385C117.002 54.5182 116.958 55.6761 116.958 56.6811C116.958 57.839 117.024 59.0188 117.176 60.2204H114.598L114.533 59.0625C113.834 60.0456 112.807 60.4826 111.147 60.4826C108.678 60.4826 107.236 58.8003 107.236 56.987C107.236 56.0039 107.629 55.2173 108.241 54.7367C109.158 54.0157 110.491 53.7099 112.283 53.5132L114.249 53.2948V52.9234C114.249 51.6562 113.506 51.2411 112.304 51.2411C111.103 51.2411 110.273 51.7436 110.185 52.8578ZM114.314 55.8728V55.2173L112.414 55.4358C110.731 55.6324 110.076 56.1349 110.076 56.9651C110.076 57.7516 110.688 58.4071 111.78 58.4071C113.135 58.4071 114.314 57.5987 114.314 55.8728Z" fill="white"/>
<path d="M120.157 49.5152V46.3255H122.953V49.5152H125.225V51.5907H122.953V56.7248C122.953 57.839 123.346 58.0575 124.33 58.0575H125.182V60.2204H123.128C120.637 60.2204 120.157 59.4557 120.157 57.271V51.5907H118.606V49.5152H120.157ZM127.41 49.5152V46.3255H130.207V49.5152H132.479V51.5907H130.207V56.7248C130.207 57.839 130.6 58.0575 131.583 58.0575H132.435V60.2204H130.381C127.891 60.2204 127.41 59.4557 127.41 57.271V51.5907H125.859V49.5152H127.41Z" fill="white"/>
<path d="M139.471 60.4826C135.845 60.4826 133.988 57.992 133.988 54.8678C133.988 51.5907 136.107 49.2749 139.406 49.2749C142.901 49.2749 144.911 51.8091 144.736 55.7198H136.762C136.828 57.2928 137.898 58.3415 139.428 58.3415C140.826 58.3415 141.634 57.6424 141.94 56.7685L144.562 57.1181C144.059 58.6037 142.508 60.4826 139.471 60.4826ZM139.34 51.3067C138.16 51.3067 136.85 51.9621 136.762 53.7754H141.94C141.874 52.0058 140.564 51.3067 139.34 51.3067Z" fill="white"/>
<path d="M153.256 49.5807V52.2243C152.863 52.1806 152.513 52.1587 152.098 52.1587C150.722 52.1587 149.804 52.6612 149.804 54.7149V60.2204H147.008V49.5152H149.761V51.1974C150.394 50.0832 151.399 49.537 152.645 49.537C152.841 49.537 153.081 49.5589 153.256 49.5807Z" fill="white"/>
<path d="M155.737 64H154.558V61.6842H155.606C156.546 61.6842 156.939 61.5312 157.441 60.417L157.551 60.1767L153.596 49.5152H156.655L158.927 56.7467L161.243 49.5152H164.083L160.303 59.8927C159.058 63.3009 158.446 64 155.737 64Z" fill="white"/>
</svg>
