<svg width="62" height="24" viewBox="0 0 62 24" fill="none" xmlns="http://www.w3.org/2000/svg">
<g id="NanoLogo">
<path d="M12.999 14.1798H8.81857L3.37773 4.62157V14.1798H0.0375977V0.231078H4.21801L9.65886 9.78932V0.231078H12.999V14.1798Z" fill="#141414"/>
<path d="M15.026 14.1798L20.3618 0.231078H24.0171L29.3739 14.1798H25.7396L24.8573 11.6589H19.4585L18.5762 14.1798H15.026ZM22.1684 3.97034L20.4879 8.73896H23.828L22.1684 3.97034Z" fill="#141414"/>
<path d="M44.5589 14.1798H40.3785L34.9376 4.62157V14.1798H31.5975V0.231078H35.7779L41.2188 9.78932V0.231078H44.5589V14.1798Z" fill="#141414"/>
<path d="M58.471 7.16343C58.471 4.18042 56.7274 2.81495 54.6477 2.81495C52.589 2.81495 50.8454 4.18042 50.8454 7.16343C50.8454 10.1464 52.589 11.6169 54.6477 11.6169C56.7274 11.6169 58.471 10.1464 58.471 7.16343ZM62.0002 7.16343C62.0002 11.6379 58.9962 14.4319 54.6477 14.4319C50.2993 14.4319 47.3162 11.6379 47.3162 7.16343C47.3162 2.6679 50.2993 0 54.6477 0C58.9962 0 62.0002 2.6679 62.0002 7.16343Z" fill="#141414"/>
<path d="M3.53122 19.8626C3.53122 18.2077 2.44978 18.0275 1.44207 18.0275H1.19628V21.6978H1.44207C2.44978 21.6978 3.53122 21.5176 3.53122 19.8626ZM0.106645 17.1426H1.49942C3.25267 17.1426 4.66183 17.6752 4.66183 19.8626C4.66183 22.0501 3.25267 22.5826 1.49942 22.5826H0.106645V17.1426Z" fill="#141414"/>
<path d="M5.59062 18.5682H6.6393V22.5826H5.59062V18.5682ZM5.59062 17.1426H6.6393V18.1176H5.59062V17.1426Z" fill="#141414"/>
<path d="M8.6231 19.8217L7.65635 19.7889C7.72189 19.027 8.31177 18.4535 9.46696 18.4535C10.6549 18.4535 11.2038 18.9287 11.1874 20.0019C11.1792 20.4443 11.1629 20.8786 11.1629 21.2554C11.1629 21.6896 11.1874 22.132 11.2448 22.5826H10.278L10.2535 22.1484C9.99129 22.5171 9.60623 22.681 8.98358 22.681C8.0578 22.681 7.51707 22.0501 7.51707 21.3701C7.51707 21.0014 7.66454 20.7065 7.89394 20.5263C8.23804 20.2559 8.7378 20.1412 9.40961 20.0675L10.147 19.9855V19.8463C10.147 19.3711 9.8684 19.2154 9.4178 19.2154C8.9672 19.2154 8.65587 19.4039 8.6231 19.8217ZM10.1715 20.9523V20.7065L9.45876 20.7884C8.82792 20.8622 8.58214 21.0506 8.58214 21.3619C8.58214 21.6569 8.81153 21.9026 9.22117 21.9026C9.72912 21.9026 10.1715 21.5995 10.1715 20.9523Z" fill="#141414"/>
<path d="M12.2149 22.5826V18.5682H13.2636V19.027C13.5012 18.6583 13.9108 18.4781 14.4106 18.4781C15.107 18.4781 15.4101 18.7976 15.574 19.1007C15.8935 18.6829 16.3031 18.4781 16.9176 18.4781C17.401 18.4781 17.7696 18.6255 17.999 18.9123C18.1957 19.1663 18.294 19.5267 18.294 20.0839V22.5826H17.2453V20.2805C17.2453 19.9692 17.2289 19.7316 17.1224 19.5677C17.0241 19.412 16.8602 19.3219 16.5735 19.3219C15.8689 19.3219 15.787 19.9118 15.787 20.5345V22.5826H14.7383V20.2805C14.7383 19.961 14.7137 19.7152 14.599 19.5513C14.5007 19.412 14.3369 19.3219 14.0665 19.3219C13.3619 19.3219 13.2636 19.9118 13.2636 20.5345V22.5826H12.2149Z" fill="#141414"/>
<path d="M20.1341 20.5836C20.1341 21.4029 20.5028 21.8781 21.0845 21.8781C21.6662 21.8781 22.0349 21.4029 22.0349 20.5836C22.0349 19.7561 21.6662 19.281 21.0845 19.281C20.5028 19.281 20.1341 19.7561 20.1341 20.5836ZM19.0691 20.5836C19.0691 19.1417 20.0194 18.4781 21.0845 18.4781C22.1496 18.4781 23.0999 19.1417 23.0999 20.5836C23.0999 22.0255 22.1496 22.681 21.0845 22.681C20.0194 22.681 19.0691 22.0255 19.0691 20.5836Z" fill="#141414"/>
<path d="M24.9924 18.5682V19.027C25.23 18.6583 25.6806 18.4781 26.1803 18.4781C26.6883 18.4781 27.0652 18.6255 27.3109 18.9451C27.4994 19.1908 27.5977 19.5431 27.5977 20.0839V22.5826H26.549V20.3133C26.549 19.9692 26.5162 19.7316 26.4016 19.5677C26.295 19.4202 26.1148 19.3219 25.8362 19.3219C25.1481 19.3219 24.9924 19.8872 24.9924 20.5345V22.5826H23.9437V18.5682H24.9924Z" fill="#141414"/>
<path d="M32.2734 17.1426V22.5826H31.2657L31.2575 22.1566C30.9953 22.5253 30.5857 22.681 30.1269 22.681C29.111 22.681 28.3736 21.8945 28.3736 20.5754C28.3736 19.2892 29.1601 18.4781 30.1924 18.4781C30.6758 18.4781 31.0035 18.6829 31.2247 18.9369V17.1426H32.2734ZM30.3317 21.8781C30.9134 21.8781 31.2657 21.3783 31.2657 20.5754C31.2657 19.7889 30.9134 19.281 30.3317 19.281C29.7582 19.281 29.4387 19.8217 29.4387 20.5836C29.4387 21.3455 29.7582 21.8781 30.3317 21.8781Z" fill="#141414"/>
<path d="M35.2847 22.5826V17.1426H37.4312C38.4061 17.1426 39.4384 17.413 39.4384 18.56C39.4384 19.0761 39.1107 19.5186 38.8158 19.707C39.2336 19.9036 39.6433 20.2067 39.6433 20.9605C39.6433 22.1566 38.6601 22.5826 37.5213 22.5826H35.2847ZM36.3743 20.2313V21.6978H37.5787C38.2095 21.6978 38.529 21.4602 38.529 20.9605C38.529 20.4525 38.2095 20.2313 37.5295 20.2313H36.3743ZM36.3743 18.0275V19.3465H37.4967C38.0129 19.3465 38.3242 19.1417 38.3242 18.6665C38.3242 18.2323 38.0047 18.0275 37.4967 18.0275H36.3743Z" fill="#141414"/>
<path d="M41.3571 19.8217L40.3903 19.7889C40.4559 19.027 41.0458 18.4535 42.2009 18.4535C43.3889 18.4535 43.9378 18.9287 43.9214 20.0019C43.9132 20.4443 43.8968 20.8786 43.8968 21.2554C43.8968 21.6896 43.9214 22.132 43.9788 22.5826H43.012L42.9874 22.1484C42.7253 22.5171 42.3402 22.681 41.7176 22.681C40.7918 22.681 40.2511 22.0501 40.2511 21.3701C40.2511 21.0014 40.3985 20.7065 40.6279 20.5263C40.972 20.2559 41.4718 20.1412 42.1436 20.0675L42.8809 19.9855V19.8463C42.8809 19.3711 42.6024 19.2154 42.1518 19.2154C41.7012 19.2154 41.3899 19.4039 41.3571 19.8217ZM42.9055 20.9523V20.7065L42.1927 20.7884C41.5619 20.8622 41.3161 21.0506 41.3161 21.3619C41.3161 21.6569 41.5455 21.9026 41.9552 21.9026C42.4631 21.9026 42.9055 21.5995 42.9055 20.9523Z" fill="#141414"/>
<path d="M45.0964 18.5682V17.372H46.1451V18.5682H46.9971V19.3465H46.1451V21.2718C46.1451 21.6896 46.2925 21.7716 46.6612 21.7716H46.9807V22.5826H46.2106C45.2766 22.5826 45.0964 22.2959 45.0964 21.4766V19.3465H44.5147V18.5682H45.0964ZM47.8164 18.5682V17.372H48.8651V18.5682H49.7171V19.3465H48.8651V21.2718C48.8651 21.6896 49.0125 21.7716 49.3812 21.7716H49.7007V22.5826H48.9306C47.9966 22.5826 47.8164 22.2959 47.8164 21.4766V19.3465H47.2347V18.5682H47.8164Z" fill="#141414"/>
<path d="M52.3393 22.681C50.9793 22.681 50.2829 21.747 50.2829 20.5754C50.2829 19.3465 51.0776 18.4781 52.3147 18.4781C53.6256 18.4781 54.3793 19.4284 54.3138 20.8949H51.3234C51.348 21.4848 51.7494 21.8781 52.3229 21.8781C52.8473 21.8781 53.1504 21.6159 53.2651 21.2882L54.2482 21.4193C54.0598 21.9764 53.4781 22.681 52.3393 22.681ZM52.2901 19.24C51.8477 19.24 51.3562 19.4858 51.3234 20.1658H53.2651C53.2405 19.5022 52.7489 19.24 52.2901 19.24Z" fill="#141414"/>
<path d="M57.5087 18.5928V19.5841C57.3612 19.5677 57.2301 19.5595 57.0745 19.5595C56.5583 19.5595 56.2142 19.7479 56.2142 20.5181V22.5826H55.1656V18.5682H56.1978V19.199C56.4354 18.7812 56.8123 18.5764 57.2793 18.5764C57.353 18.5764 57.4431 18.5846 57.5087 18.5928Z" fill="#141414"/>
<path d="M58.4391 24H57.9967V23.1316H58.3899C58.7422 23.1316 58.8897 23.0742 59.0781 22.6564L59.1191 22.5663L57.6362 18.5682H58.7832L59.6352 21.28L60.5037 18.5682H61.5687L60.1514 22.4598C59.6844 23.7378 59.455 24 58.4391 24Z" fill="#141414"/>
</g>
</svg>
