<svg width="21" height="17" viewBox="0 0 21 17" fill="none" xmlns="http://www.w3.org/2000/svg">
<path id="Vector" d="M20.9293 2C20.1593 2.35 19.3293 2.58 18.4693 2.69C19.3493 2.16 20.0293 1.32 20.3493 0.31C19.5193 0.81 18.5993 1.16 17.6293 1.36C16.8393 0.5 15.7293 0 14.4693 0C12.1193 0 10.1993 1.92 10.1993 4.29C10.1993 4.63 10.2393 4.96 10.3093 5.27C6.74928 5.09 3.57928 3.38 1.46928 0.79C1.09928 1.42 0.889277 2.16 0.889277 2.94C0.889277 4.43 1.63928 5.75 2.79928 6.5C2.08928 6.5 1.42928 6.3 0.849277 6V6.03C0.849277 8.11 2.32928 9.85 4.28928 10.24C3.66 10.4122 2.99937 10.4362 2.35928 10.31C2.63088 11.1625 3.16281 11.9084 3.88029 12.4429C4.59777 12.9775 5.46472 13.2737 6.35928 13.29C4.84291 14.4904 2.96327 15.1393 1.02928 15.13C0.689277 15.13 0.349277 15.11 0.00927734 15.07C1.90928 16.29 4.16928 17 6.58928 17C14.4693 17 18.7993 10.46 18.7993 4.79C18.7993 4.6 18.7993 4.42 18.7893 4.23C19.6293 3.63 20.3493 2.87 20.9293 2Z" fill="#1E1E1E"/>
</svg>
